<svg height="128" viewBox="0 0 1024 1024" width="128" xmlns="http://www.w3.org/2000/svg"><path d="m1014.88968 411.786477-364.412811-400.854093c-14.576512-14.576512-36.441281-14.576512-51.017794 0-14.576513 14.576513-14.576513 21.864769-14.576513 36.441281v211.359431c-298.818505 0-583.060498 247.800712-583.060498 546.619217 0 80.170819 36.441281 182.206406 72.882562 218.647687 43.729537-225.935943 269.66548-400.854093 510.177936-400.854093v218.647687c0 7.288256 0 14.576512 7.288256 29.153025 14.576512 14.576512 43.729537 7.288256 51.017794 0l364.412811-393.565836c14.576513-14.576513 14.576513-29.153025 14.576513-36.441281s0-21.864769-7.288256-29.153025z" fill="#fff"/></svg>